name processed_emg_signals
nRows=49
nColumns=7
 
endheader
time	RGLTMED	RRF	RADDLONG	RST	RTA	RGM
0.0	0.0075263370298883	0.0018638656997055	0.0056917647465924	0.0013816601252606	0.062764372173879	0.0001156701573163
0.001	0.0081322909739082	0.0024890094036347	0.0059323739279131	0.0018276491258771	0.0697981525570111	0.0007539206068193
0.002	0.0087475553581952	0.0031130495679483	0.0061742225602407	0.0022724348709856	0.0767953407333986	0.0013895633645433
0.003	0.0093718438152048	0.0037355691515852	0.0064171328542603	0.0027156871486542	0.0837507411666441	0.0020221998645699
0.004	0.0100048581032653	0.0043561517625344	0.0066609244783088	0.0031570752625446	0.0906591999434253	0.0026514349269226
0.005	0.0106462883355964	0.0049743822589565	0.0069054148134043	0.0035962684795487	0.0975156135876873	0.0032768773346685
0.006	0.0112958132225017	0.005589847348272	0.0071504192134466	0.0040329364801209	0.1043149377815158	0.0038981404042335
0.007	0.0119531003259146	0.0062021361826304	0.0073957512698736	0.0044667498104378	0.1110521959610738	0.0045148425474741
0.008	0.0126178063255102	0.0068108409492643	0.0076412230801403	0.0048973803355053	0.117722487758623	0.0051266078241552
0.009000000000000001	0.0132895772957127	0.0074155574543845	0.0078866455194291	0.005324501692415	0.1243209972648654	0.0057330664836069
0.01	0.0139680489930032	0.0080158856993765	0.0081318285150466	0.0057477897429505	0.130843001089356	0.006333855494378
0.011	0.0146528471530069	0.0086114304481351	0.0083765813229548	0.0061669230248375	0.1372838762001579	0.0069286190607887
0.012	0.0153435877969523	0.0092018017844594	0.0086207128059154	0.0065815832009851	0.1436391075267817	0.0075170091253073
0.013000000000000001	0.0160398775471057	0.0097866156584446	0.0088640317127168	0.0069914555061092	0.149904295312428	0.0080986858557039
0.014	0.016741313950845	0.0103654944208792	0.0091063469580086	0.0073962291902315	0.1560751622029188	0.0086733181160169
0.015	0.0174474858130412	0.0109380673446907	0.0093474679022278	0.0077955979585596	0.1621475600603856	0.0092405839203828
0.016	0.0181579735364067	0.0115039711325852	0.0095872046311823	0.008189260407326	0.1681174764901334	0.0098001708688753
0.017	0.0188723494695116	0.0120628504101067	0.0098253682348101	0.008576920455172	0.1739810410690481	0.0103517765645147
0.018000000000000002	0.0195901782621055	0.0126143582034636	0.0100617710846734	0.008958287769707	0.1797345312639642	0.0108951090106496
0.019	0.02031101722745	0.0131581564014936	0.0102962271097385	0.0093330781888686	0.1853743780282926	0.0114298869879993
0.02	0.0210344167113414	0.0136939162012306	0.010528552070002	0.0097010141367445	0.1908971710653449	0.0119558404106253
0.021	0.0217599204675061	0.0142213185365649	0.010758563827527	0.0100618250335378	0.1962996637470553	0.0124727106602076
0.022	0.0224870660390649	0.0147400544895154	0.0109860826144528	0.0104152476993455	0.2015787776773064	0.0129802508979639
0.023	0.0232153851458072	0.0152498256836785	0.0112109312975499	0.0107610267514131	0.206731606889707	0.0134782263535934
0.024	0.0239444040770518	0.0157503446593693	0.011432935638905	0.0110989149945177	0.2117554216702478	0.0139664145906304
0.025	0.0246736440900962	0.0162413352300457	0.0116519245522888	0.0114286738041261	0.2166476719960438	0.0144446057476314
0.026000000000000002	0.0254026218143892	0.0167225328194975	0.0118677303547626	0.0117500735019257	0.2214059905822232	0.0149126027547064
0.027	0.0261308496617271	0.0171936847793782	0.0120801890130632	0.0120628937233504	0.2260281955302958	0.0153702215249493
0.028	0.0268578362428755	0.0176545506865731	0.0122891403843214	0.012366923776669	0.2305122925730043	0.0158172911205097
0.029	0.0275830867910191	0.0181049026199371	0.0124944284507204	0.0126619629932266	0.2348564769131153	0.0162536538931052
0.03	0.0283061035924699	0.018544525415912	0.0126959015477597	0.0129478210684169	0.2390591346563787	0.0166791655989377
0.031	0.0290263864250055	0.0189732169025523	0.0128934125858753	0.0132243183929925	0.2431188438416577	0.0170936954881251
0.032	0.0297434330042228	0.0193907881114901	0.0130868192651771	0.0134912863743327	0.2470343750735625	0.0174971263688018
0.033	0.0304567394382662	0.0197970634674013	0.0132759842831449	0.0137485677472846	0.2508046917648854	0.0178893546462268
0.034	0.0311658006912598	0.0201918809544529	0.0134607755350744	0.013996016874258	0.2544289499976824	0.0182702903372514
0.035	0.0318701110556713	0.0205750922592606	0.0136410663071581	0.0142335000342651	0.2579064980130228	0.0186398570606438
0.036000000000000004	0.032569164633797	0.0209465628897747	0.0138167354620566	0.0144608957006427	0.2612368753403723	0.0189979920037879
0.037	0.0332624558284276	0.0213061722695519	0.0139876676168857	0.0146780948072738	0.2644198115781948	0.019344645866366
0.038	0.0339494798426842	0.0216538138068608	0.0141537533135072	0.0148850010031172	0.2674552248379184	0.0196797827816257
0.039	0.0346297331889509	0.0219893949380982	0.014314889181035	0.0150815308949124	0.2703432198639808	0.0200033802159095
0.04	0.0353027142067313	0.0223128371451103	0.0144709780904347	0.0152676142778994	0.2730840858432178	0.0203154288471736
0.041	0.0359679235892075	0.0226240759460539	0.0146219293011372	0.0154431943544281	0.2756782939175011	0.0206159324232801
0.042	0.0366248649181995	0.0229230608595922	0.0147676585995212	0.0156082279402958	0.2781264944140257	0.0209049076008708
0.043000000000000003	0.0372730452071322	0.0232097553422993	0.0149080884291283	0.0157626856586646	0.2804295138079269	0.0211823837657484
0.044	0.0379119754515408	0.0234841366993405	0.0150431480124375	0.0159065521214128	0.2825883514320436	0.0214484028356541
0.045	0.0385411711866166	0.0237461959687112	0.0151727734639735	0.016039826097801	0.2846041759488035	0.0217030190463841
0.046	0.0391601530511877	0.023995937779516	0.0152969078944849	0.0161625206702735	0.2864783215995115	0.0219462987221949
0.047	0.0397684473575266	0.0242333801849603	0.0154155015059296	0.016274663377278	0.2882122842466634	0.0221783200313863
0.048	0.0403655866663001	0.0244585544709155	0.015528511676989	0.016376296342959	0.2898077172251451	0.0223991727279799
